<svg version="1.0" xmlns="http://www.w3.org/2000/svg" width="645.3" height="646.7" viewBox="0 0 484 485">
  <path d="M239 32v10h6V22h-6v10zm-21.8-7.1c-1.8 1.1-1.2 4.1 1 5.5 1.4.8 2.2.7 3.5-.7 2.9-2.9-1-7.1-4.5-4.8zm44.8.5c-2.7 3.3 1.8 7.2 4.8 4.2 1.3-1.3 1.4-2 .6-3.4-1.5-2.3-3.8-2.6-5.4-.8zm-67.6 4c-1 2.6.4 4.8 2.8 4.4 1.7-.2 2.3-1 2.3-2.8 0-1.8-.6-2.6-2.3-2.8-1.3-.2-2.5.3-2.8 1.2zm89.2.2c-.9 2.2 1.2 4.6 3.8 4.2 1.5-.2 2.1-1 2.1-2.8 0-2-.6-2.6-2.6-2.8-1.8-.2-2.9.3-3.3 1.4zm-110.4 4.6c-3 3 .1 7.3 3.6 5.1 2.3-1.4 2.5-2.9.7-4.7-2-1.9-2.7-2-4.3-.4zm133.3.4c-1.8 1.8-1.6 3.3.7 4.7 3.5 2.2 6.6-2.1 3.6-5.1-1.6-1.6-2.3-1.5-4.3.4zM152 42.5c-1.9 2.3-.8 5 2 5 1.6 0 2.6-.6 2.8-1.8.4-1.8-1.4-4.7-2.8-4.7-.4 0-1.3.7-2 1.5zm175.5.1c-1.8 1.8-1.6 3.3.7 4.7 2.1 1.4 4.8.2 4.8-2.2 0-3-3.4-4.5-5.5-2.5zm21.1 9.7c-3.5 5.6-8.7 15-8.4 15.2l2.5 1.4c2 1 2.5.5 6.7-6.9 2.5-4.3 4.6-8.3 4.6-8.7 0-.5-.9-1.4-2-2.1-1.7-1-2.2-.9-3.4 1.1zm-217.3-.6c-.7.2-1.3.8-1.3 1.3 0 1.2 9.1 17 9.9 17 .3 0 1.4-.7 2.4-1.4 1.8-1.4 1.6-1.9-2.8-9.5-4.5-7.7-5.4-8.6-8.2-7.4zm-19.2 14.1c-1.3 2.5.8 5.6 3.5 5 2.9-.5 2.7-6.2-.3-6.6a3 3 0 0 0-3.2 1.6zm254.3-.4c-1.1 2.9 0 5.1 2.6 5.1 2.1 0 2.5-.5 2.5-3 0-2.4-.5-3.1-2.3-3.3-1.3-.2-2.4.3-2.8 1.2zM95 79.5c-1.8 2.2-.8 5 1.9 5 3.2 0 4.9-2.8 3.2-4.9-1.7-2-3.5-2-5.1-.1zm289 0c-1.8 2.1-.3 5.5 2.5 5.5 1.5 0 2.6-.7 3-2 .7-2.3-1-5-3-5-.7 0-1.8.7-2.5 1.5zm-305 16c-1.8 2.2-.8 5 1.9 5 3.2 0 4.9-2.8 3.2-4.9-1.7-2-3.5-2-5.1-.1zm321 0c-1.8 2.1-.3 5.5 2.5 5.5 1.5 0 2.6-.7 3-2 .7-2.3-1-5-3-5-.7 0-1.8.7-2.5 1.5zM64.7 112.7c-1.3 1.2-.7 5.1.9 5.7 2.1.8 2 .8 3.8-1 1.2-1.2 1.3-2 .6-3.5-1-1.9-4-2.6-5.3-1.2zm349.4.6c-1.4 1.7-.6 4.3 1.6 5.1 2.2.9 4.5-1.3 4.1-3.8-.4-2.5-4-3.3-5.7-1.3zM51.2 132l-1.2 2.4c0 .5 16 9.6 16.9 9.6.7 0 3.4-4.1 2.9-4.4-.9-.7-16.8-9.6-17-9.6-.2 0-.9.9-1.6 2zm372.1 2.3a131 131 0 0 0-7.8 4.9c-.9.9.4 4.8 1.6 4.8 1.2 0 16.9-9 16.9-9.7 0-1-2.1-4.3-2.8-4.3-.4.1-3.9 2-7.9 4.3zM42 152.4c-2.7 3.3 1.8 7.2 4.8 4.2 1.3-1.3 1.4-2 .6-3.4-1.5-2.3-3.8-2.6-5.4-.8zm394.5.7c-1.4 4.3 4.5 6.6 6.1 2.4.8-1.9-1.3-4.5-3.7-4.5-1 0-2.1 1-2.4 2.1zM34 173.4c-2.7 3.3 1.8 7.2 4.8 4.2 1.3-1.3 1.4-2 .6-3.4-1.5-2.3-3.8-2.6-5.4-.8zm411 0c-2.7 3.3 1.8 7.2 4.8 4.2 1.3-1.3 1.4-2 .6-3.4-1.5-2.3-3.8-2.6-5.4-.8zm-417 22c-2.7 3.3 1.8 7.2 4.8 4.2 1.3-1.3 1.4-2 .6-3.4-1.5-2.3-3.8-2.6-5.4-.8zm422.3.2c-1.5 3.9 3.8 6.7 6 3.2.8-1.2.7-2.1-.2-3.2-1.7-2.1-5-2-5.8 0zM25.2 216.9c-.8.4-1.2 1.9-1 3.2.2 1.8.9 2.4 2.8 2.4s2.6-.6 2.8-2.4c.3-2-1.1-4.1-2.8-4.1-.3 0-1.1.4-1.8.9zm429.3.7c-1.8 1.8-1.6 3.3.7 4.7 3.5 2.2 6.6-2.1 3.6-5.1-1.6-1.6-2.3-1.5-4.3.4zm-12.3 24.5c.2 1.9.6 3.3 1.1 3.1.4-.1 4.8-.2 9.7-.2 8.9 0 9 0 9-2.5 0-2.4-.2-2.5-6.9-2.5-3.8 0-8.3-.3-10-.6-3.2-.7-3.2-.6-2.9 2.7zm-420.2.4v2.5h20v-5H22v2.5zM454.5 263c-1.5 1.6-1.6 2.2-.5 3.5 1.9 2.2 5.4 1.5 5.8-1.2.5-3.3-3-4.8-5.3-2.3zm-430.1.4c-1 2.6.4 4.8 2.8 4.4 1.7-.2 2.3-1 2.3-2.8 0-1.8-.6-2.6-2.3-2.8-1.3-.2-2.5.3-2.8 1.2zm3.6 22.1c-2.6 3.1 1.8 7.1 4.7 4.2 1.9-1.9.8-5.7-1.6-5.7-1 0-2.4.7-3.1 1.5zm422.3.1c-.6 1.7.6 4.5 2.3 5.1.5.2 1.9-.3 2.9-1.1 1.6-1.2 1.8-1.8.9-3.3-1.5-2.4-5.2-2.9-6.1-.7zM33.7 306.7c-1.3 1.3-.7 4.2 1.2 5.2 2.7 1.5 5.6-.9 4.7-3.7-.7-2.1-4.4-3.1-5.9-1.5zm411 0c-1.3 1.3-.7 4.2 1.2 5.2 2.7 1.5 5.6-.9 4.7-3.7-.7-2.1-4.4-3.1-5.9-1.5zM41.5 329c-.7 2.3 1 5 3 5s3.7-2.7 3-5c-.4-1.3-1.5-2-3-2s-2.6.7-3 2zm394.8-.4c-.6 1.7.6 4.5 2.3 5.1.5.2 1.9-.3 2.9-1.1 1.6-1.2 1.8-1.8.9-3.3-1.5-2.4-5.2-2.9-6.1-.7zM58.2 345.1c-7.7 4.7-8.1 5.2-7.1 7.2l1.4 2.5c.1.1 4.1-2 8.8-4.8l8.7-5.1-1.6-2.5c-.9-1.3-1.7-2.4-1.8-2.3l-8.4 5zm357.6-2.5c-.6 1.3-.9 2.6-.7 2.8l8.4 4.9c8 4.6 8 4.6 9.2 2.4.6-1.2.9-2.5.7-2.8a67 67 0 0 0-8.4-5.2l-8.1-4.6-1.1 2.5zM64.7 366.7c-1.6 1.5-.6 5.2 1.5 5.9 2.8.9 5.2-2 3.7-4.7-1-1.9-3.9-2.5-5.2-1.2zm349.4.7c-.9 1.1-1 2-.1 3.6 1.3 2.4 3.8 2.3 5.3-.1 2.3-3.7-2.5-6.8-5.2-3.5zm-334.6 17c-2.5 1.8-1.5 5 1.6 5.4 2.8.3 4.3-1.6 3.3-4.2-.8-2.1-3-2.6-4.9-1.2zm321 0c-2.7 2-1.5 5.1 2 5.1 2.3 0 3.1-.5 3.3-2.2.4-2.9-2.8-4.7-5.3-2.9zM94.4 401.5c-1 2.5.4 4.5 3 4.5 2.5 0 3.9-2 3-4.5-.4-.8-1.7-1.5-3-1.5-1.4 0-2.7.7-3 1.5zm289-.1c-1.1 2.8.4 4.8 3.3 4.4 2.2-.2 2.8-.8 2.8-2.8 0-2-.6-2.6-2.8-2.8-1.8-.2-2.9.2-3.3 1.2zM112 415.9c-.7 1.5-.6 2.4.6 3.6.9.9 2.1 1.4 2.7 1.2 1.8-.6 3.1-3.3 2.4-5.1-.9-2.2-4.4-2-5.7.3zm254.7-1.3c-1.3 1.3-.7 5.2.9 5.8 2.2.9 4.6-1.3 4.2-3.8-.3-2.1-3.7-3.4-5.1-2zm-232.2 8.6c-4.5 7.7-4.6 8.2-2.9 9.5 1 .7 2.1 1.3 2.5 1.3.4 0 2.8-3.7 5.3-8.2 4.4-7.6 4.6-8.3 3-9.5-1-.7-2.1-1.3-2.5-1.3-.4 0-2.8 3.7-5.4 8.2zm207.2-7c-1.5 1.2-1.3 2 3 9.5 4.7 8.4 6.1 9.5 8.3 6.8 1-1.2.4-2.9-3.3-9.2a37.1 37.1 0 0 0-5.4-8c-.5-.2-1.6.2-2.6.9zm-189.5 20.7c-.8.4-1.2 1.9-1 3.2.2 1.8.9 2.4 2.8 2.4s2.6-.6 2.8-2.4c.3-2-1.1-4.1-2.8-4.1-.3 0-1.1.4-1.8.9zm175.3.7c-1.8 1.8-1.6 3.3.7 4.7 3.5 2.2 6.6-2.1 3.6-5.1-1.6-1.6-2.3-1.5-4.3.4zM239 453v10h6v-20h-6v10zm-65.8-7.8c-3 3 .1 7.3 3.6 5.1 2.3-1.4 2.5-2.9.7-4.7-2-1.9-2.7-2-4.3-.4zm133.4.4c-.9.8-1.6 1.8-1.6 2.2.1 3.8 6.3 4.2 6.8.5.4-3-3.1-4.9-5.2-2.7zm-111.4 5.3c-.8.4-1.2 1.9-1 3.2.2 1.8.9 2.4 2.8 2.4s2.6-.6 2.8-2.4c.3-2-1.1-4.1-2.8-4.1-.3 0-1.1.4-1.8.9zm89.4.7c-2.2 2.1-.3 5.6 2.7 5.2 3.7-.5 3.3-6.7-.5-6.8-.4 0-1.4.7-2.2 1.6zm-68.3 4c-.6 1.7.6 4.5 2.3 5.1.5.2 1.9-.3 2.9-1.1 1.6-1.2 1.8-1.8.9-3.3-1.5-2.4-5.2-2.9-6.1-.7zm45.2.4c-.7 2.3 1 5 3 5s3.7-2.7 3-5c-.9-2.7-5.1-2.7-6 0z"/>
</svg>
